<svg xmlns="http://www.w3.org/2000/svg" viewBox="0 0 512 512">
  <defs>
    <linearGradient id="g" x1="0" y1="0" x2="1" y2="1">
      <stop offset="0%" stop-color="#D4AF37"/>
      <stop offset="100%" stop-color="#F4D03F"/>
    </linearGradient>
  </defs>
  <!-- Shield/badge -->
  <path d="M256 32l160 64v144c0 112-80 176-160 208-80-32-160-96-160-208V96l160-64z" fill="#1A1A2E"/>
  <path d="M256 56l136 54v126c0 95-65 151-136 181-71-30-136-86-136-181V110l136-54z" fill="url(#g)" opacity="0.12"/>
  <!-- Modern W with integrated clock hands -->
  <g transform="translate(0,0)">
    <!-- W base -->
    <path d="M128 176l44 176h28l36-116 36 116h28l44-176h-32l-26 120-34-112h-28l-34 112-26-120z" fill="#F8F9FA"/>
    <!-- Clock overlay centered on W cross -->
    <circle cx="256" cy="204" r="28" fill="#D4AF37" stroke="#1A1A2E" stroke-width="4"/>
    <path d="M256 204v-18" stroke="#1A1A2E" stroke-width="6" stroke-linecap="round"/>
    <path d="M256 204h14" stroke="#1A1A2E" stroke-width="6" stroke-linecap="round"/>
  </g>
</svg>
